<?xml version="1.0" encoding="iso-8859-1"?>
<!-- Uploaded to: SVG Repo, www.svgrepo.com, Generator: SVG Repo Mixer Tools -->
<svg fill="#000000" height="800px" width="800px" version="1.1" id="Layer_1" xmlns="http://www.w3.org/2000/svg" xmlns:xlink="http://www.w3.org/1999/xlink" 
	 viewBox="0 0 512 512" xml:space="preserve">
<g>
	<g>
		<path d="M121.394,118.377c-7.677,0-13.923,6.246-13.923,13.923s6.246,13.923,13.923,13.923c7.678,0,13.924-6.246,13.924-13.923
			S129.073,118.377,121.394,118.377z"/>
	</g>
</g>
<g>
	<g>
		<path d="M435.828,389.715l-37.684,0.001v-67.479c0-51.976-42.285-94.261-94.261-94.261h-68.543v-97.272
			c0-52.269-42.524-94.792-94.792-94.792c-50.51,0-91.921,39.713-94.65,89.555c-10.618,1.504-20.455,5.382-28.386,11.285
			C6.383,145.034,0,156.791,0,169.011s6.383,23.978,17.511,32.26c7.898,5.878,17.68,9.747,28.244,11.266v92.144
			c0,56.268,44.307,102.381,99.865,105.286c4.764,26.661,28.103,46.967,56.113,46.967c5.632,0,10.199-4.567,10.199-10.199v-36.62
			h74.197c-14.974,13.919-24.367,33.766-24.367,55.774c0,5.632,4.567,10.199,10.199,10.199h48.947
			c28.166,0,52.792-15.379,65.973-38.169c13.179,22.79,37.805,38.169,65.974,38.169h48.947c5.632,0,10.199-4.567,10.199-10.199
			C512,423.885,477.83,389.715,435.828,389.715z M191.533,435.09c-12.005-3.487-21.488-12.97-24.975-24.976h24.975V435.09z
			 M320.909,455.688h-37.814c4.805-25.902,27.566-45.575,54.839-45.575l37.814,0.001
			C370.942,436.015,348.179,455.688,320.909,455.688z M377.745,389.715H151.189c-46.89,0-85.036-38.146-85.036-85.035V203.061
			c0-5.632-4.567-10.199-10.199-10.199c-19.272,0.001-35.555-10.921-35.555-23.851c0-12.929,16.283-23.851,35.555-23.851
			c5.632,0,10.199-4.567,10.199-10.199v-4.257c0-41.021,33.374-74.394,74.394-74.394c41.02,0,74.394,33.374,74.394,74.394v134.074
			c0,5.632,4.567,10.199,10.199,10.199c5.632,0,10.199-4.567,10.199-10.199v-16.403h68.543c40.729,0,73.863,33.134,73.863,73.863
			V389.715z M452.854,455.688c-27.272,0-50.035-19.673-54.84-45.575h37.815c27.271,0,50.034,19.673,54.839,45.575H452.854z"/>
	</g>
</g>
<g>
	<g>
		<path d="M225.141,286.501c-5.632,0-10.199,4.567-10.199,10.199v5.32c0,5.632,4.567,10.199,10.199,10.199
			s10.199-4.567,10.199-10.199v-5.32C235.341,291.068,230.774,286.501,225.141,286.501z"/>
	</g>
</g>
</svg>